<svg width="375" height="143" viewBox="0 0 375 143" fill="none" xmlns="http://www.w3.org/2000/svg">
    <path
        d="M66.156 17.637C68.2777 17.6388 70.3118 18.4834 71.8108 19.985L92.0022 40.2111C93.5012 41.7126 94.3423 43.7482 94.3405 45.8699L94.316 74.4494C94.3142 76.5711 93.4696 78.6052 91.968 80.1042L71.742 100.296C70.2404 101.795 68.2049 102.636 66.0831 102.634L37.5037 102.609C35.3819 102.608 33.3478 101.763 31.8488 100.261L11.6574 80.0354C10.1584 78.5338 9.31731 76.4982 9.31913 74.3765L9.34363 45.7971C9.34545 43.6753 10.19 41.6412 11.6916 40.1422L31.9177 19.9508C33.4192 18.4518 35.4548 17.6107 37.5765 17.6125L66.156 17.637Z"
        fill="white" fill-opacity="0.05" />
    <path
        d="M66.1554 18.1374C68.1445 18.1391 70.0515 18.9309 71.4568 20.3387L91.6486 40.5645C93.0537 41.9721 93.8422 43.8803 93.8406 45.8692L93.8156 74.4488C93.8139 76.4379 93.0221 78.3449 91.6144 79.7502L71.3885 99.942C69.9809 101.347 68.0728 102.136 66.0839 102.134L37.5043 102.109C35.5151 102.107 33.6082 101.316 32.2029 99.9078L12.011 79.6819C10.6059 78.2743 9.81745 76.3662 9.81907 74.3772L9.84403 45.7976C9.84573 43.8085 10.6375 41.9016 12.0453 40.4962L32.2711 20.3044C33.6787 18.8993 35.5869 18.1108 37.5758 18.1125L66.1554 18.1374Z"
        stroke="#A3F1FE" stroke-opacity="0.02" />
    <path
        d="M122.142 122.862C123.641 124.363 125.675 125.208 127.797 125.21L156.376 125.235C158.498 125.237 160.534 124.396 162.035 122.897L182.261 102.705C183.763 101.206 184.608 99.1724 184.61 97.0507L184.635 68.4712C184.636 66.3495 183.795 64.3139 182.296 62.8123L162.105 42.5859C160.606 41.0843 158.572 40.2397 156.45 40.2379L127.871 40.2129C125.749 40.2111 123.714 41.0522 122.212 42.5511L101.986 62.7422C100.484 64.2412 99.6395 66.2753 99.6376 68.397L99.6127 96.9765C99.6108 99.0982 100.452 101.134 101.951 102.635L122.142 122.862Z"
        fill="white" fill-opacity="0.05" />
    <path
        d="M122.496 122.508C123.901 123.916 125.808 124.708 127.797 124.709L156.377 124.735C158.366 124.736 160.274 123.948 161.682 122.543L181.908 102.351C183.316 100.946 184.107 99.0392 184.109 97.0501L184.135 68.4705C184.136 66.4816 183.348 64.5734 181.943 63.1657L161.751 42.9396C160.346 41.5318 158.439 40.74 156.45 40.7383L127.87 40.7129C125.881 40.7112 123.973 41.4997 122.565 42.9047L102.339 63.0963C100.932 64.5016 100.14 66.4085 100.138 68.3976L100.113 96.9772C100.111 98.9661 100.899 100.874 102.304 102.282L122.496 122.508Z"
        stroke="#A3F1FE" stroke-opacity="0.02" />
    <path
        d="M247.451 18.204C249.572 18.2059 251.606 19.0505 253.105 20.5521L273.297 40.7785C274.796 42.2801 275.637 44.3156 275.635 46.4374L275.61 75.0168C275.608 77.1386 274.763 79.1726 273.262 80.6716L253.035 100.863C251.534 102.362 249.498 103.203 247.376 103.201L218.797 103.176C216.675 103.174 214.641 102.329 213.142 100.828L192.951 80.6015C191.452 79.0999 190.611 77.0644 190.613 74.9426L190.638 46.3632C190.64 44.2415 191.484 42.2074 192.986 40.7084L213.212 20.5173C214.714 19.0183 216.749 18.1772 218.871 18.1791L247.451 18.204Z"
        fill="white" fill-opacity="0.05" />
    <path
        d="M247.45 18.7044C249.439 18.7062 251.346 19.498 252.751 20.9058L272.943 41.1319C274.348 42.5396 275.136 44.4477 275.135 46.4366L275.109 75.0162C275.108 77.0053 274.316 78.9123 272.908 80.3176L252.682 100.509C251.274 101.914 249.366 102.703 247.377 102.701L218.798 102.676C216.808 102.674 214.902 101.882 213.496 100.474L193.305 80.2481C191.9 78.8405 191.111 76.9323 191.113 74.9434L191.138 46.3638C191.14 44.3747 191.932 42.4677 193.34 41.0624L213.566 20.8709C214.973 19.4658 216.882 18.6774 218.87 18.679L247.45 18.7044Z"
        stroke="#A3F1FE" stroke-opacity="0.02" />
    <path
        d="M304.142 122.862C305.641 124.363 307.675 125.208 309.797 125.21L338.376 125.235C340.498 125.237 342.534 124.396 344.035 122.897L364.261 102.705C365.763 101.206 366.608 99.1724 366.61 97.0507L366.635 68.4712C366.636 66.3495 365.795 64.3139 364.296 62.8123L344.105 42.5859C342.606 41.0843 340.572 40.2397 338.45 40.2379L309.871 40.2129C307.749 40.2111 305.714 41.0522 304.212 42.5511L283.986 62.7422C282.484 64.2412 281.639 66.2753 281.638 68.397L281.613 96.9765C281.611 99.0982 282.452 101.134 283.951 102.635L304.142 122.862Z"
        fill="white" fill-opacity="0.05" />
    <path
        d="M304.496 122.508C305.901 123.916 307.808 124.708 309.797 124.709L338.377 124.735C340.366 124.736 342.274 123.948 343.682 122.543L363.908 102.351C365.316 100.946 366.107 99.0392 366.109 97.0501L366.135 68.4705C366.136 66.4816 365.348 64.5734 363.943 63.1657L343.751 42.9396C342.346 41.5318 340.439 40.74 338.45 40.7383L309.87 40.7129C307.881 40.7112 305.973 41.4997 304.565 42.9047L284.339 63.0963C282.932 64.5016 282.14 66.4085 282.138 68.3976L282.113 96.9772C282.111 98.9661 282.899 100.874 284.304 102.282L304.496 122.508Z"
        stroke="#A3F1FE" stroke-opacity="0.02" />
    <path
        d="M117.743 48.2853C117.743 48.2853 111.5 38.0664 100 38.0664C88.5 38.0664 79.5 28.5654 79.5 28.5654"
        stroke="#191927" />
    <path
        d="M167 49.2853C167 49.2853 173.243 39.0664 184.743 39.0664C196.243 39.0664 205.243 29.5654 205.243 29.5654"
        stroke="#1E1D2C" />
    <path
        d="M298.743 48.2853C298.743 48.2853 292.5 38.0664 281 38.0664C269.5 38.0664 260.5 28.5654 260.5 28.5654"
        stroke="#232233" />
    <path
        d="M114.243 114.793C114.243 114.793 108 104.574 96.5 104.574C85 104.574 76 95.0732 76 95.0732"
        stroke="#191927" />
    <path
        d="M170.5 114.793C170.5 114.793 176.743 104.574 188.243 104.574C199.743 104.574 208.743 95.0732 208.743 95.0732"
        stroke="#1E1D2C" />
    <path
        d="M296.243 114.793C296.243 114.793 290 104.574 278.5 104.574C267 104.574 258 95.0732 258 95.0732"
        stroke="#1B1B2B" />
</svg>
    