<svg width="375" height="315" viewBox="0 0 375 315" fill="none" xmlns="http://www.w3.org/2000/svg">
<path d="M187.5 0.5C327.606 0.5 454.429 18.1252 546.208 46.6084C592.101 60.8509 629.204 77.7995 654.822 96.5967C680.451 115.402 694.5 135.988 694.5 157.5C694.5 179.012 680.451 199.598 654.822 218.403C629.204 237.201 592.101 254.149 546.208 268.392C454.429 296.875 327.606 314.5 187.5 314.5C47.3939 314.5 -79.4286 296.875 -171.208 268.392C-217.101 254.149 -254.204 237.201 -279.822 218.403C-305.451 199.598 -319.5 179.012 -319.5 157.5C-319.5 135.988 -305.451 115.402 -279.822 96.5967C-254.204 77.7995 -217.101 60.8509 -171.208 46.6084C-79.4286 18.1252 47.3939 0.5 187.5 0.5Z" fill="url(#paint0_linear_9782_64196)" stroke="#2E2A4B"/>
<defs>
<linearGradient id="paint0_linear_9782_64196" x1="273" y1="244" x2="871.5" y2="-57.5" gradientUnits="userSpaceOnUse">
<stop stop-color="#1D1A32"/>
<stop offset="1" stop-color="#574F98"/>
</linearGradient>
</defs>
</svg>
