<svg width="28" height="21" viewBox="0 0 28 21" fill="none" xmlns="http://www.w3.org/2000/svg">
    <mask id="path-1-outside-1_10949_98" maskUnits="userSpaceOnUse" x="-0.000210285" y="0"
        width="28" height="21" fill="black">
        <rect fill="white" x="-0.000210285" width="28" height="21" />
        <path
            d="M14.1228 1.01172C14.1537 1.01753 14.1845 1.02495 14.2146 1.03516C14.3331 1.07527 14.4444 1.14987 14.5379 1.25781L21.0896 8.83105L25.8152 5.18945C25.847 5.165 25.88 5.14338 25.9139 5.125C26.0164 5.06935 26.1273 5.04189 26.2381 5.04199C26.3857 5.04209 26.5338 5.09127 26.6619 5.19043C26.9178 5.38858 27.0445 5.74563 26.9842 6.09473L25.2508 16.0264H25.2478V19.1602C25.2477 19.6233 24.9067 19.999 24.4861 19.999H3.5076C3.087 19.999 2.74599 19.6233 2.74588 19.1602V16.0146L1.01444 6.09473C0.954122 5.74568 1.08186 5.38857 1.33768 5.19043C1.5937 4.99237 1.92812 4.99197 2.18436 5.18945L6.90897 8.83105L13.4607 1.25781C13.6409 1.04954 13.8892 0.96769 14.1228 1.01172Z" />
    </mask>
    <g filter="url(#filter0_i_10949_98)">
        <path
            d="M14.1228 1.01172C14.1537 1.01753 14.1845 1.02495 14.2146 1.03516C14.3331 1.07527 14.4444 1.14987 14.5379 1.25781L21.0896 8.83105L25.8152 5.18945C25.847 5.165 25.88 5.14338 25.9139 5.125C26.0164 5.06935 26.1273 5.04189 26.2381 5.04199C26.3857 5.04209 26.5338 5.09127 26.6619 5.19043C26.9178 5.38858 27.0445 5.74563 26.9842 6.09473L25.2508 16.0264H25.2478V19.1602C25.2477 19.6233 24.9067 19.999 24.4861 19.999H3.5076C3.087 19.999 2.74599 19.6233 2.74588 19.1602V16.0146L1.01444 6.09473C0.954122 5.74568 1.08186 5.38857 1.33768 5.19043C1.5937 4.99237 1.92812 4.99197 2.18436 5.18945L6.90897 8.83105L13.4607 1.25781C13.6409 1.04954 13.8892 0.96769 14.1228 1.01172Z"
            fill="url(#paint0_linear_10949_98)" />
    </g>
    <path
        d="M14.1228 1.01172L14.3082 0.0290442L14.308 0.0290137L14.1228 1.01172ZM14.2146 1.03516L14.5355 0.0880203L14.5353 0.0879593L14.2146 1.03516ZM14.5379 1.25781L15.2941 0.60355L15.2939 0.603312L14.5379 1.25781ZM21.0896 8.83105L20.3334 9.48532L20.9516 10.1999L21.7 9.62315L21.0896 8.83105ZM25.8152 5.18945L25.205 4.39725L25.2048 4.39736L25.8152 5.18945ZM25.9139 5.125L25.437 4.24602L25.4364 4.24632L25.9139 5.125ZM26.2381 5.04199L26.2371 6.04199L26.2374 6.04199L26.2381 5.04199ZM26.6619 5.19043L27.2742 4.39979L27.274 4.39967L26.6619 5.19043ZM26.9842 6.09473L27.9693 6.26666L27.9695 6.26511L26.9842 6.09473ZM25.2508 16.0264V17.0264H26.0914L26.2359 16.1983L25.2508 16.0264ZM25.2478 16.0264V15.0264H24.2478V16.0264H25.2478ZM25.2478 19.1602L26.2478 19.1604V19.1602H25.2478ZM24.4861 19.999V20.999H24.4861L24.4861 19.999ZM2.74588 19.1602H1.74588V19.1604L2.74588 19.1602ZM2.74588 16.0146H3.74588V15.928L3.73099 15.8427L2.74588 16.0146ZM1.01444 6.09473L0.0290411 6.26501L0.0293312 6.26667L1.01444 6.09473ZM1.33768 5.19043L0.725785 4.39949L0.725338 4.39984L1.33768 5.19043ZM2.18436 5.18945L2.79484 4.39742L2.79479 4.39738L2.18436 5.18945ZM6.90897 8.83105L6.29849 9.62309L7.04696 10.2L7.66524 9.48532L6.90897 8.83105ZM13.4607 1.25781L14.217 1.91207L14.2171 1.91201L13.4607 1.25781ZM14.1228 1.01172L13.9375 1.99439C13.9364 1.99418 13.9197 1.99106 13.894 1.98235L14.2146 1.03516L14.5353 0.0879593C14.4493 0.0588443 14.371 0.0408866 14.3082 0.0290442L14.1228 1.01172ZM14.2146 1.03516L13.8938 1.98229C13.8335 1.96186 13.7976 1.93049 13.7818 1.91231L14.5379 1.25781L15.2939 0.603312C15.0913 0.369252 14.8327 0.188692 14.5355 0.0880204L14.2146 1.03516ZM14.5379 1.25781L13.7816 1.91207L20.3334 9.48532L21.0896 8.83105L21.8459 8.17679L15.2941 0.60355L14.5379 1.25781ZM21.0896 8.83105L21.7 9.62315L26.4256 5.98155L25.8152 5.18945L25.2048 4.39736L20.4792 8.03896L21.0896 8.83105ZM25.8152 5.18945L26.4255 5.98166C26.4173 5.98797 26.4061 5.99563 26.3913 6.00368L25.9139 5.125L25.4364 4.24632C25.354 4.29113 25.2766 4.34203 25.205 4.39725L25.8152 5.18945ZM25.9139 5.125L26.3907 6.00398C26.3473 6.02751 26.294 6.04205 26.2371 6.04199L26.2381 5.04199L26.239 4.04199C25.9605 4.04173 25.6855 4.11119 25.437 4.24602L25.9139 5.125ZM26.2381 5.04199L26.2374 6.04199C26.1595 6.04194 26.0934 6.01494 26.0498 5.98119L26.6619 5.19043L27.274 4.39967C26.9742 4.1676 26.612 4.04225 26.2387 4.04199L26.2381 5.04199ZM26.6619 5.19043L26.0496 5.98107C26.0108 5.951 26.0006 5.92437 25.9995 5.92134C25.9983 5.91786 25.9995 5.92025 25.9988 5.92435L26.9842 6.09473L27.9695 6.26511C28.0853 5.59575 27.8567 4.8509 27.2742 4.39979L26.6619 5.19043ZM26.9842 6.09473L25.9991 5.92279L24.2657 15.8544L25.2508 16.0264L26.2359 16.1983L27.9693 6.26666L26.9842 6.09473ZM25.2508 16.0264V15.0264H25.2478V16.0264V17.0264H25.2508V16.0264ZM25.2478 16.0264H24.2478V19.1602H25.2478H26.2478V16.0264H25.2478ZM25.2478 19.1602L24.2478 19.1599C24.2478 19.1457 24.2533 19.1151 24.2843 19.0811C24.3166 19.0454 24.3869 18.999 24.4861 18.999L24.4861 19.999L24.4861 20.999C25.5479 20.999 26.2476 20.0823 26.2478 19.1604L25.2478 19.1602ZM24.4861 19.999V18.999H3.5076V19.999V20.999H24.4861V19.999ZM3.5076 19.999V18.999C3.60675 18.999 3.67703 19.0454 3.70944 19.0811C3.74041 19.1152 3.74588 19.1457 3.74588 19.1599L2.74588 19.1602L1.74588 19.1604C1.7461 20.0824 2.44588 20.999 3.5076 20.999V19.999ZM2.74588 19.1602H3.74588V16.0146H2.74588H1.74588V19.1602H2.74588ZM2.74588 16.0146L3.73099 15.8427L1.99955 5.92278L1.01444 6.09473L0.0293312 6.26667L1.76078 16.1866L2.74588 16.0146ZM1.01444 6.09473L1.99983 5.92445C1.9993 5.92134 2.00031 5.91937 1.99914 5.92264C1.99816 5.92538 1.98828 5.95139 1.95002 5.98102L1.33768 5.19043L0.725338 4.39984C0.144531 4.84969 -0.0869811 5.59359 0.0290425 6.26501L1.01444 6.09473ZM1.33768 5.19043L1.94958 5.98137C1.90802 6.01352 1.84216 6.04152 1.7621 6.04161C1.68201 6.04171 1.61586 6.01384 1.57393 5.98153L2.18436 5.18945L2.79479 4.39738C2.17795 3.922 1.34126 3.92334 0.725785 4.39949L1.33768 5.19043ZM2.18436 5.18945L1.57388 5.98149L6.29849 9.62309L6.90897 8.83105L7.51945 8.03902L2.79484 4.39742L2.18436 5.18945ZM6.90897 8.83105L7.66524 9.48532L14.217 1.91207L13.4607 1.25781L12.7045 0.60355L6.1527 8.17679L6.90897 8.83105ZM13.4607 1.25781L14.2171 1.91201C14.1994 1.93237 14.1647 1.9615 14.1106 1.98098C14.0571 2.00024 13.9967 2.00555 13.9377 1.99442L14.1228 1.01172L14.308 0.0290137C13.7094 -0.0837886 13.1073 0.137791 12.7044 0.603616L13.4607 1.25781Z"
        fill="url(#paint1_linear_10949_98)" mask="url(#path-1-outside-1_10949_98)" />
    <defs>
        <filter id="filter0_i_10949_98" x="0" y="0" width="27.9987" height="23"
            filterUnits="userSpaceOnUse" color-interpolation-filters="sRGB">
            <feFlood flood-opacity="0" result="BackgroundImageFix" />
            <feBlend mode="normal" in="SourceGraphic" in2="BackgroundImageFix" result="shape" />
            <feColorMatrix in="SourceAlpha" type="matrix"
                values="0 0 0 0 0 0 0 0 0 0 0 0 0 0 0 0 0 0 127 0" result="hardAlpha" />
            <feOffset dy="2" />
            <feGaussianBlur stdDeviation="2" />
            <feComposite in2="hardAlpha" operator="arithmetic" k2="-1" k3="1" />
            <feColorMatrix type="matrix"
                values="0 0 0 0 0.438582 0 0 0 0 0.234697 0 0 0 0 0.0016867 0 0 0 0.7 0" />
            <feBlend mode="normal" in2="shape" result="effect1_innerShadow_10949_98" />
        </filter>
        <linearGradient id="paint0_linear_10949_98" x1="14.4798" y1="21.6668" x2="14.4798"
            y2="-1.65894" gradientUnits="userSpaceOnUse">
            <stop stop-color="#E8921C" />
            <stop offset="1" stop-color="#F6D28B" />
        </linearGradient>
        <linearGradient id="paint1_linear_10949_98" x1="13.9995" y1="1" x2="13.9995" y2="19.9989"
            gradientUnits="userSpaceOnUse">
            <stop stop-color="#EDA747" />
            <stop offset="1" stop-color="#F6D189" />
        </linearGradient>
    </defs>
</svg>
    